<?xml version="1.0" standalone="no"?>
<!DOCTYPE svg PUBLIC "-//W3C//DTD SVG 20010904//EN"
 "http://www.w3.org/TR/2001/REC-SVG-20010904/DTD/svg10.dtd">
<svg version="1.0" xmlns="http://www.w3.org/2000/svg"
 width="800.000000pt" height="800.000000pt" viewBox="0 0 800.000000 800.000000"
 preserveAspectRatio="xMidYMid meet">
<metadata>
Created by potrace 1.14, written by Peter Selinger 2001-2017
</metadata>
<g transform="translate(0.000000,800.000000) scale(0.100000,-0.100000)"
fill="#000000" stroke="none">
<path d="M4210 7730 l0 -100 -400 0 -400 0 0 -100 0 -100 -200 0 -200 0 0
-100 0 -100 -100 0 -100 0 0 -100 0 -100 -400 0 -400 0 0 -100 0 -100 -200 0
-200 0 0 -100 0 -100 -100 0 -100 0 0 -100 0 -100 -200 0 -200 0 0 -100 0
-100 -100 0 -100 0 0 -200 0 -200 -100 0 -100 0 0 -1300 0 -1300 -100 0 -100
0 0 -300 0 -300 -100 0 -100 0 0 -200 0 -200 200 0 200 0 0 100 0 100 100 0
100 0 0 -300 0 -300 -100 0 -100 0 0 -100 0 -100 -100 0 -100 0 0 -200 0 -200
-100 0 -100 0 0 -100 0 -100 -100 0 -100 0 0 -200 0 -200 200 0 200 0 0 100 0
100 200 0 200 0 0 100 0 100 200 0 200 0 0 -100 0 -100 -100 0 -100 0 0 -100
0 -100 -100 0 -100 0 0 -100 0 -100 300 0 300 0 0 100 0 100 300 0 300 0 0
100 0 100 100 0 100 0 0 100 0 100 300 0 300 0 0 -100 0 -100 100 0 100 0 0
-100 0 -100 200 0 200 0 0 -100 0 -100 1100 0 1100 0 0 100 0 100 200 0 200 0
0 100 0 100 100 0 100 0 0 100 0 100 200 0 200 0 0 100 0 100 100 0 100 0 0
100 0 100 100 0 100 0 0 200 0 200 100 0 100 0 0 700 0 700 -100 0 -100 0 0
100 0 100 -100 0 -100 0 0 500 0 500 200 0 200 0 0 -100 0 -100 395 0 395 0 0
100 0 100 -95 0 -95 0 0 100 0 100 -100 0 -100 0 0 300 0 300 -100 0 -100 0 0
400 0 400 -100 0 -100 0 0 200 0 200 -100 0 -100 0 0 200 0 200 -100 0 -100 0
0 100 0 100 -100 0 -100 0 0 100 0 100 -200 0 -200 0 0 100 0 100 -100 0 -100
0 0 100 0 100 -300 0 -300 0 0 100 0 100 -600 0 -600 0 0 -100z m-2800 -6600
l0 -100 -100 0 -100 0 0 100 0 100 100 0 100 0 0 -100z"/>
</g>
</svg>
